<?xml version="1.0" encoding="utf-8"?>
<!-- Generator: Adobe Illustrator 18.0.0, SVG Export Plug-In . SVG Version: 6.00 Build 0)  -->
<!DOCTYPE svg PUBLIC "-//W3C//DTD SVG 1.1//EN" "http://www.w3.org/Graphics/SVG/1.1/DTD/svg11.dtd">
<svg version="1.1" xmlns="http://www.w3.org/2000/svg" xmlns:xlink="http://www.w3.org/1999/xlink" x="0px" y="0px" width="141.3px"
	 height="159.7px" viewBox="0 0 141.3 159.7" enable-background="new 0 0 141.3 159.7" xml:space="preserve">
<g id="Ebene_1">
	<g>
		<polygon fill="#D40600" points="5.7,5.7 135.7,5.7 123.6,139.2 70.7,153.7 16.8,139.2 		"/>
	</g>
	<g>
		<defs>
			<rect id="SVGID_1_" x="70.7" y="-4.3" width="76" height="167"/>
		</defs>
		<clipPath id="SVGID_2_">
			<use xlink:href="#SVGID_1_"  overflow="visible"/>
		</clipPath>
		<g clip-path="url(#SVGID_2_)">
			<linearGradient id="SVGID_3_" gradientUnits="userSpaceOnUse" x1="4.6823" y1="79.755" x2="136.6667" y2="79.755">
				<stop  offset="5.560430e-03" style="stop-color:#D40600"/>
				<stop  offset="0.1908" style="stop-color:#D90E09"/>
				<stop  offset="0.4987" style="stop-color:#E52523"/>
				<stop  offset="0.889" style="stop-color:#F9494C"/>
				<stop  offset="1" style="stop-color:#FF5459"/>
			</linearGradient>
			<polygon fill="url(#SVGID_3_)" points="4.7,4.7 136.7,4.7 124.4,140.1 70.7,154.8 16,140.2 			"/>
		</g>
	</g>
	<g>
		<polygon fill="#C10202" points="81.1,76.6 108.7,68.1 111.1,75.6 100.1,83.5 		"/>
		<polygon fill="#C10202" points="60.1,76.6 32.5,68.1 30.1,75.6 41.1,83.5 		"/>
		<polygon opacity="0.3" fill="#7C0404" points="41.1,81.5 30.6,74 30.1,75.6 41.1,83.5 60.1,76.6 57.1,75.7 		"/>
		<polygon opacity="0.3" fill="#7C0404" points="100.1,81.5 110.6,74 111.1,75.6 100.1,83.5 81.1,76.6 84,75.7 		"/>
		<line fill="#7C0404" x1="41.1" y1="81.5" x2="30.6" y2="74"/>
	</g>
	<g>
		<path fill="#D40600" d="M127.6,11.7l-10.2,122.5l-46.7,12.7l-46.7-12.7L13.7,11.7H127.6 M140.7-0.3H0.7l12,143.9l58,15.7l58-15.7
			L140.7-0.3L140.7-0.3z"/>
	</g>
	<polygon fill="#FFFFFF" points="112.7,48.7 79.7,53.7 81.2,35.7 114.2,30.7 	"/>
	<polygon fill="#E5E5E5" points="28.7,48.7 61.7,53.7 60.1,35.7 27.1,30.7 	"/>
	<polygon fill="#FFFFFF" points="79.7,116.7 70.7,118.7 61.7,116.7 61.7,53.7 79.7,53.7 	"/>
	<g>
		<g>
			<polygon fill="#E5E5E5" points="61.7,53.7 61.7,116.7 70.7,118.7 70.7,53.7 			"/>
		</g>
	</g>
</g>
<g id="Ebene_2">
</g>
</svg>
